<svg version="1.1" id="Layer_1" xmlns="http://www.w3.org/2000/svg" xmlns:xlink="http://www.w3.org/1999/xlink" x="0px" y="0px"
	 width="100%" viewBox="0 0 192 192" enable-background="new 0 0 192 192" xml:space="preserve">
<path fill="#000000" opacity="1.000000" stroke="none" 
	d="
M173.842194,100.309235 
	C176.297241,104.863518 174.421173,108.749008 173.251007,112.727959 
	C168.321884,129.488632 163.398224,146.251465 158.619324,163.055237 
	C157.748322,166.117874 156.212540,167.845840 153.094620,168.705658 
	C135.117111,173.663239 117.172562,178.741226 99.237396,183.850571 
	C96.084129,184.748856 93.132523,184.691650 89.948677,183.776093 
	C72.186150,178.668182 54.389755,173.675491 36.565147,168.788528 
	C33.480312,167.942764 31.660185,166.316040 30.786522,163.303162 
	C25.455688,144.919418 20.102951,126.541901 14.691214,108.181854 
	C13.985366,105.787170 14.422430,103.590973 15.080252,101.334038 
	C20.062048,84.241959 24.980392,67.131035 30.063641,50.069229 
	C30.908524,47.233402 30.276262,44.971500 29.101490,42.448139 
	C26.192896,36.200600 21.810381,30.489758 22.716875,22.862034 
	C23.335209,17.659054 31.171556,9.052691 36.426105,8.867415 
	C41.086266,8.703099 45.758160,8.904651 50.423740,8.849312 
	C53.416512,8.813813 55.635586,10.388960 57.193733,12.545689 
	C65.125618,23.524666 75.501434,27.669910 89.037888,25.897007 
	C97.066505,24.845478 105.348282,25.580179 113.510574,25.763445 
	C117.099739,25.844032 120.050850,25.072792 122.330490,22.169825 
	C123.147491,21.129425 124.367950,20.393219 125.126587,19.321592 
	C131.418884,10.433286 139.842300,7.658160 150.619293,8.650800 
	C161.511993,9.654099 169.639450,20.534092 165.999115,30.918724 
	C165.724274,31.702753 165.496368,32.578918 164.983688,33.192532 
	C157.077560,42.654999 159.453491,52.630909 162.875931,63.033680 
	C166.878738,75.200432 170.118118,87.618355 173.842194,100.309235 
M47.871090,150.632111 
	C62.157070,158.861847 76.471840,167.042328 90.704254,175.363708 
	C93.486183,176.990234 95.771004,176.979202 98.564041,175.339096 
	C112.495811,167.158218 126.514977,159.125778 140.529922,151.087387 
	C142.497528,149.958847 143.829483,148.377426 144.902222,146.435455 
	C152.069550,133.460480 159.248108,120.491547 166.486160,107.555992 
	C167.543732,105.665955 167.684769,103.916382 167.080185,101.843079 
	C162.329224,85.550491 157.630280,69.242455 153.000809,52.914944 
	C152.119492,49.806641 150.431244,47.749771 147.460434,46.343838 
	C139.634964,42.640434 131.895569,38.750408 124.188156,34.805222 
	C121.908798,33.638489 120.305351,33.831223 118.463066,35.705070 
	C112.745941,41.520115 106.860100,47.169266 101.040886,52.883968 
	C99.185509,54.706036 98.082382,56.798553 98.108727,59.518707 
	C98.182953,67.182816 98.114899,74.848183 98.140030,82.512932 
	C98.160240,88.676697 103.832100,88.619713 107.419853,90.816612 
	C110.412735,92.649246 112.807175,91.397720 114.895988,89.068916 
	C116.339630,87.459389 117.670059,85.556229 120.045723,85.394257 
	C127.022263,84.918610 134.009033,84.729912 140.984222,85.429787 
	C141.834976,85.515152 142.473648,86.128212 142.657578,87.761024 
	C136.677444,93.499245 132.218033,102.138084 121.107330,100.216705 
	C116.495773,99.419228 115.908119,102.172852 116.618843,106.028938 
	C118.999405,118.944801 121.172707,131.898819 123.540962,144.817032 
	C124.007805,147.363556 123.541908,149.321701 121.676445,151.136948 
	C116.781342,155.900330 111.952675,160.732925 107.149857,165.589691 
	C105.263687,167.497055 102.994934,167.899002 100.423370,168.288788 
	C89.402252,169.959320 80.572792,166.746826 73.961739,157.580368 
	C72.519180,155.580231 70.575562,153.894135 68.677856,152.280823 
	C65.933205,149.947510 65.377632,147.159653 66.023537,143.755051 
	C67.233330,137.378220 68.256073,130.965393 69.317177,124.560989 
	C70.613113,116.739235 71.868446,108.910767 73.328735,99.933052 
	C60.271168,102.809479 52.598267,96.335922 45.951611,86.116928 
	C52.669655,84.400482 58.663136,85.394173 64.556259,85.026405 
	C68.657204,84.770477 72.080116,85.818283 74.738266,89.115883 
	C76.727303,91.583420 79.175217,92.642456 82.153587,90.723709 
	C85.677780,88.453323 91.222580,88.425026 91.057495,82.122414 
	C90.856865,74.462280 90.941940,66.793396 90.988930,59.128822 
	C91.003136,56.810894 90.282516,54.932236 88.633736,53.315609 
	C82.567322,47.367489 76.479912,41.438946 70.518585,35.386627 
	C68.784828,33.626411 67.272896,33.638611 65.216072,34.688934 
	C57.359730,38.700806 49.467773,42.646015 41.527016,46.487743 
	C38.959732,47.729790 37.242500,49.403503 36.442657,52.213779 
	C31.797508,68.534691 27.074272,84.833405 22.360142,101.134628 
	C21.627569,103.667831 21.890617,105.963791 23.210083,108.319695 
	C27.685061,116.309715 31.781706,124.521095 36.487804,132.369125 
	C40.064186,138.333176 42.265678,145.141037 47.871090,150.632111 
M115.755196,141.296799 
	C113.917587,130.480591 111.257736,119.721886 110.495911,108.830429 
	C109.857262,99.700119 104.592033,96.258102 97.342880,93.732109 
	C91.952415,91.853767 81.048294,97.832458 80.038666,103.451111 
	C77.716011,116.376923 75.684334,129.355591 73.298790,142.269257 
	C72.374176,147.274475 75.369057,150.094421 78.834213,151.820740 
	C82.338455,153.566513 86.526390,153.553848 90.914833,151.348907 
	C89.722778,150.397842 89.262482,149.717606 88.720398,149.644608 
	C79.162880,148.357529 77.329437,142.171585 78.626869,133.933167 
	C78.729156,133.283691 78.686089,132.599182 78.626991,131.938446 
	C78.318054,128.483932 80.057457,127.048737 83.336243,127.107132 
	C88.490463,127.198929 93.645012,127.390549 98.798721,127.369377 
	C111.366737,127.317749 111.229240,127.276939 111.097588,140.127441 
	C111.055092,144.275711 109.556366,146.540024 105.626289,147.825821 
	C103.199928,148.619629 100.047485,148.627075 98.518425,151.929016 
	C101.476471,153.331543 104.331818,152.773712 107.053452,152.690277 
	C112.914001,152.510681 116.582443,147.937881 115.755196,141.296799 
M57.340298,30.875416 
	C58.885967,29.793003 61.282169,29.873661 61.957607,27.601007 
	C54.586575,17.555515 50.675716,15.281444 40.995510,15.373938 
	C32.890652,15.451380 27.989807,22.293264 30.724926,29.937098 
	C31.611547,32.414944 33.247257,34.621876 34.164867,37.092190 
	C35.525105,40.754105 37.643532,40.846802 40.711895,39.230907 
	C45.986526,36.453117 51.362709,33.868168 57.340298,30.875416 
M127.711174,27.618048 
	C134.702942,33.629288 143.413437,36.431713 151.541214,40.311008 
	C152.541779,40.788570 153.432449,39.908802 153.914734,38.957409 
	C155.714828,35.406414 157.859711,31.972160 159.173019,28.246571 
	C160.970520,23.147448 156.505737,16.064302 151.139130,15.511777 
	C144.502792,14.828523 137.811615,14.514423 133.285110,21.142776 
	C131.804794,23.310459 129.725952,25.069405 127.711174,27.618048 
M53.119068,166.245132 
	C57.162411,167.378387 61.205750,168.511642 65.249084,169.644913 
	C52.480030,160.828857 36.565174,155.895920 31.917233,138.284256 
	C31.192469,142.304565 33.493927,145.185898 33.722504,148.398834 
	C34.555893,160.113312 41.580166,164.958542 53.119068,166.245132 
M145.553131,156.116943 
	C138.222504,160.401398 130.891876,164.685852 123.561241,168.970291 
	C132.010284,167.359100 140.109879,165.030014 148.196564,162.656998 
	C150.003372,162.126801 151.663269,161.202591 152.246414,159.283218 
	C154.207108,152.829727 156.066589,146.345505 157.964798,139.873032 
	C156.146683,141.197449 155.211258,142.903183 154.134705,144.514648 
	C151.587845,148.327057 150.467911,153.158234 145.553131,156.116943 
M91.437653,142.865356 
	C95.055138,144.437927 98.265091,142.594482 101.562553,141.619019 
	C103.851479,140.941910 103.841560,139.038177 103.718712,137.141541 
	C103.581398,135.021545 102.220657,134.322952 100.335991,134.305908 
	C96.673141,134.272797 93.009850,134.241699 89.347122,134.266541 
	C87.863029,134.276611 86.035698,134.154877 85.758408,136.113266 
	C85.483170,138.057175 85.444687,140.224640 87.416939,141.492905 
	C88.369423,142.105408 89.581253,142.314606 91.437653,142.865356 
M91.375710,46.103863 
	C92.730537,47.458439 94.060524,49.832676 96.222641,47.867161 
	C101.029274,43.497620 105.558617,38.823051 110.200989,34.272823 
	C106.225090,34.561764 104.383278,37.387711 102.140869,39.615063 
	C94.678474,47.027370 94.810951,46.996788 87.203781,39.398903 
	C84.986610,37.184444 83.147446,34.149174 79.344627,34.041012 
	C83.196503,37.887474 87.048378,41.733936 91.375710,46.103863 
M89.791573,160.864883 
	C93.669067,160.864883 97.546562,160.864883 101.424057,160.864883 
	C101.408272,160.444901 101.392487,160.024902 101.376694,159.604919 
	C97.767448,160.182739 94.213699,159.604752 90.640114,159.498810 
	C90.155273,159.484451 88.006378,158.483719 89.791573,160.864883 
z"/>
</svg>